# Blender v2.76 (sub 0) OBJ File: ''
# www.blender.org
o Cylinder_Cylinder.002
v 0.000000 0.000000 -0.100000
v 0.000000 1.000000 -0.000000
v 0.019509 0.000000 -0.098079
v 0.038268 0.000000 -0.092388
v 0.055557 0.000000 -0.083147
v 0.070711 0.000000 -0.070711
v 0.083147 0.000000 -0.055557
v 0.092388 0.000000 -0.038269
v 0.098079 0.000000 -0.019509
v 0.100000 0.000000 -0.000000
v 0.098079 0.000000 0.019509
v 0.092388 0.000000 0.038268
v 0.083147 0.000000 0.055557
v 0.070711 0.000000 0.070710
v 0.055557 0.000000 0.083147
v 0.038268 0.000000 0.092388
v 0.019509 0.000000 0.098078
v 0.000000 0.000000 0.100000
v -0.019509 0.000000 0.098078
v -0.038268 0.000000 0.092388
v -0.055557 0.000000 0.083147
v -0.070711 0.000000 0.070710
v -0.083147 0.000000 0.055557
v -0.092388 0.000000 0.038268
v -0.098078 0.000000 0.019509
v -0.100000 0.000000 -0.000000
v -0.098078 0.000000 -0.019509
v -0.092388 0.000000 -0.038269
v -0.083147 0.000000 -0.055557
v -0.070711 0.000000 -0.070711
v -0.055557 0.000000 -0.083147
v -0.038268 0.000000 -0.092388
v -0.019509 0.000000 -0.098079
v 0.000000 0.715517 -0.100000
v 0.019509 0.715517 -0.098079
v 0.038268 0.715517 -0.092388
v 0.055557 0.715517 -0.083147
v 0.070711 0.715517 -0.070711
v 0.083147 0.715517 -0.055557
v 0.092388 0.715517 -0.038269
v 0.098079 0.715517 -0.019509
v 0.100000 0.715517 -0.000000
v 0.098079 0.715517 0.019509
v 0.092388 0.715517 0.038268
v 0.083147 0.715517 0.055557
v 0.070711 0.715517 0.070710
v 0.055557 0.715517 0.083147
v 0.038268 0.715517 0.092388
v 0.019509 0.715517 0.098078
v 0.000000 0.715517 0.100000
v -0.019509 0.715517 0.098078
v -0.038268 0.715517 0.092388
v -0.055557 0.715517 0.083147
v -0.070711 0.715517 0.070710
v -0.083147 0.715517 0.055557
v -0.092388 0.715517 0.038268
v -0.098078 0.715517 0.019509
v -0.100000 0.715517 -0.000000
v -0.098078 0.715517 -0.019509
v -0.092388 0.715517 -0.038269
v -0.083147 0.715517 -0.055557
v -0.070711 0.715517 -0.070711
v -0.055557 0.715517 -0.083147
v -0.038268 0.715517 -0.092388
v -0.019509 0.715517 -0.098079
v 0.000000 0.715517 -0.138569
v 0.027033 0.715517 -0.135906
v 0.053028 0.715517 -0.128021
v 0.076985 0.715517 -0.115216
v 0.097983 0.715517 -0.097983
v 0.115216 0.715517 -0.076985
v 0.128021 0.715517 -0.053028
v 0.135906 0.715517 -0.027034
v 0.138569 0.715517 -0.000000
v 0.135906 0.715517 0.027033
v 0.128021 0.715517 0.053028
v 0.115216 0.715517 0.076984
v 0.097983 0.715517 0.097983
v 0.076985 0.715517 0.115215
v 0.053028 0.715517 0.128021
v 0.027033 0.715517 0.135906
v -0.000000 0.715517 0.138569
v -0.027033 0.715517 0.135906
v -0.053028 0.715517 0.128021
v -0.076985 0.715517 0.115215
v -0.097983 0.715517 0.097983
v -0.115216 0.715517 0.076984
v -0.128021 0.715517 0.053028
v -0.135906 0.715517 0.027033
v -0.138569 0.715517 -0.000000
v -0.135906 0.715517 -0.027034
v -0.128021 0.715517 -0.053028
v -0.115216 0.715517 -0.076985
v -0.097983 0.715517 -0.097983
v -0.076985 0.715517 -0.115216
v -0.053028 0.715517 -0.128021
v -0.027033 0.715517 -0.135907
vn 0.000000 -0.685700 -0.727900
vn 0.142000 -0.685700 -0.713900
vn 0.278500 -0.685700 -0.672500
vn 0.404400 -0.685700 -0.605200
vn 0.514700 -0.685700 -0.514700
vn 0.605200 -0.685700 -0.404400
vn 0.672500 -0.685700 -0.278500
vn 0.713900 -0.685700 -0.142000
vn 0.727900 -0.685700 0.000000
vn 0.713900 -0.685700 0.142000
vn 0.672500 -0.685700 0.278500
vn 0.605200 -0.685700 0.404400
vn 0.514700 -0.685700 0.514700
vn 0.404400 -0.685700 0.605200
vn 0.278500 -0.685700 0.672500
vn 0.142000 -0.685700 0.713900
vn 0.000000 -0.685700 0.727900
vn -0.142000 -0.685700 0.713900
vn -0.278500 -0.685700 0.672500
vn -0.404400 -0.685700 0.605200
vn -0.514700 -0.685700 0.514700
vn -0.605200 -0.685700 0.404400
vn -0.672500 -0.685700 0.278500
vn -0.713900 -0.685700 0.142000
vn -0.727900 -0.685700 0.000000
vn -0.713900 -0.685700 -0.142000
vn -0.672500 -0.685700 -0.278500
vn -0.605200 -0.685700 -0.404400
vn -0.514700 -0.685700 -0.514700
vn -0.404400 -0.685700 -0.605200
vn -0.278500 -0.685700 -0.672500
vn -0.142000 -0.685700 -0.713900
vn -0.261600 -0.729800 -0.631600
vn -0.133300 -0.729800 -0.670500
vn 0.000000 -0.729800 -0.683600
vn -0.379800 -0.729800 -0.568400
vn -0.483400 -0.729800 -0.483400
vn -0.568400 -0.729800 -0.379800
vn -0.631600 -0.729800 -0.261600
vn -0.670500 -0.729800 -0.133400
vn -0.683600 -0.729800 0.000000
vn -0.670500 -0.729800 0.133300
vn -0.631600 -0.729800 0.261600
vn -0.568400 -0.729800 0.379800
vn -0.483400 -0.729800 0.483400
vn -0.379800 -0.729800 0.568400
vn -0.261600 -0.729800 0.631600
vn -0.133400 -0.729800 0.670500
vn 0.000000 -0.729800 0.683600
vn 0.133300 -0.729800 0.670500
vn 0.261600 -0.729800 0.631600
vn 0.379800 -0.729800 0.568400
vn 0.483400 -0.729800 0.483400
vn 0.568400 -0.729800 0.379800
vn 0.631600 -0.729800 0.261600
vn 0.670500 -0.729800 0.133300
vn 0.683600 -0.729800 0.000000
vn 0.670500 -0.729800 -0.133300
vn 0.631600 -0.729800 -0.261600
vn 0.568400 -0.729800 -0.379800
vn 0.483400 -0.729800 -0.483400
vn 0.379800 -0.729800 -0.568400
vn 0.261600 -0.729800 -0.631600
vn 0.133300 -0.729800 -0.670500
vn -0.329700 -0.507600 -0.796000
vn -0.168100 -0.507600 -0.845000
vn 0.000000 -0.507600 -0.861500
vn -0.478700 -0.507600 -0.716400
vn -0.609200 -0.507600 -0.609200
vn -0.716400 -0.507600 -0.478700
vn -0.796000 -0.507600 -0.329700
vn -0.845000 -0.507600 -0.168100
vn -0.861500 -0.507600 0.000000
vn -0.845000 -0.507600 0.168100
vn -0.796000 -0.507600 0.329700
vn -0.716400 -0.507600 0.478700
vn -0.609200 -0.507600 0.609200
vn -0.478700 -0.507600 0.716400
vn -0.329700 -0.507600 0.796000
vn -0.168100 -0.507600 0.845000
vn 0.000000 -0.507600 0.861500
vn 0.168100 -0.507600 0.845000
vn 0.329700 -0.507600 0.796000
vn 0.478700 -0.507600 0.716400
vn 0.609200 -0.507600 0.609200
vn 0.716400 -0.507600 0.478700
vn 0.796000 -0.507600 0.329700
vn 0.845000 -0.507600 0.168100
vn 0.861500 -0.507600 0.000000
vn 0.845000 -0.507600 -0.168100
vn 0.796000 -0.507600 -0.329700
vn 0.716400 -0.507600 -0.478700
vn 0.609200 -0.507600 -0.609200
vn 0.478700 -0.507600 -0.716400
vn 0.329700 -0.507600 -0.796000
vn 0.168100 -0.507600 -0.845000
vn 0.000000 1.000000 0.000000
s 1
f 1//1 3//2 4//3 5//4 6//5 7//6 8//7 9//8 10//9 11//10 12//11 13//12 14//13 15//14 16//15 17//16 18//17 19//18 20//19 21//20 22//21 23//22 24//23 25//24 26//25 27//26 28//27 29//28 30//29 31//30 32//31 33//32
f 32//31 64//33 65//34 33//32
f 33//32 65//34 34//35 1//1
f 31//30 63//36 64//33 32//31
f 30//29 62//37 63//36 31//30
f 29//28 61//38 62//37 30//29
f 28//27 60//39 61//38 29//28
f 27//26 59//40 60//39 28//27
f 26//25 58//41 59//40 27//26
f 25//24 57//42 58//41 26//25
f 24//23 56//43 57//42 25//24
f 23//22 55//44 56//43 24//23
f 22//21 54//45 55//44 23//22
f 21//20 53//46 54//45 22//21
f 20//19 52//47 53//46 21//20
f 19//18 51//48 52//47 20//19
f 18//17 50//49 51//48 19//18
f 17//16 49//50 50//49 18//17
f 16//15 48//51 49//50 17//16
f 15//14 47//52 48//51 16//15
f 14//13 46//53 47//52 15//14
f 13//12 45//54 46//53 14//13
f 12//11 44//55 45//54 13//12
f 11//10 43//56 44//55 12//11
f 10//9 42//57 43//56 11//10
f 9//8 41//58 42//57 10//9
f 8//7 40//59 41//58 9//8
f 7//6 39//60 40//59 8//7
f 6//5 38//61 39//60 7//6
f 5//4 37//62 38//61 6//5
f 4//3 36//63 37//62 5//4
f 3//2 35//64 36//63 4//3
f 1//1 34//35 35//64 3//2
f 64//33 96//65 97//66 65//34
f 65//34 97//66 66//67 34//35
f 63//36 95//68 96//65 64//33
f 62//37 94//69 95//68 63//36
f 61//38 93//70 94//69 62//37
f 60//39 92//71 93//70 61//38
f 59//40 91//72 92//71 60//39
f 58//41 90//73 91//72 59//40
f 57//42 89//74 90//73 58//41
f 56//43 88//75 89//74 57//42
f 55//44 87//76 88//75 56//43
f 54//45 86//77 87//76 55//44
f 53//46 85//78 86//77 54//45
f 52//47 84//79 85//78 53//46
f 51//48 83//80 84//79 52//47
f 50//49 82//81 83//80 51//48
f 49//50 81//82 82//81 50//49
f 48//51 80//83 81//82 49//50
f 47//52 79//84 80//83 48//51
f 46//53 78//85 79//84 47//52
f 45//54 77//86 78//85 46//53
f 44//55 76//87 77//86 45//54
f 43//56 75//88 76//87 44//55
f 42//57 74//89 75//88 43//56
f 41//58 73//90 74//89 42//57
f 40//59 72//91 73//90 41//58
f 39//60 71//92 72//91 40//59
f 38//61 70//93 71//92 39//60
f 37//62 69//94 70//93 38//61
f 36//63 68//95 69//94 37//62
f 35//64 67//96 68//95 36//63
f 34//35 66//67 67//96 35//64
f 66//67 2//97 67//96
f 67//96 2//97 68//95
f 68//95 2//97 69//94
f 69//94 2//97 70//93
f 70//93 2//97 71//92
f 71//92 2//97 72//91
f 72//91 2//97 73//90
f 73//90 2//97 74//89
f 74//89 2//97 75//88
f 75//88 2//97 76//87
f 76//87 2//97 77//86
f 77//86 2//97 78//85
f 78//85 2//97 79//84
f 79//84 2//97 80//83
f 80//83 2//97 81//82
f 81//82 2//97 82//81
f 82//81 2//97 83//80
f 83//80 2//97 84//79
f 84//79 2//97 85//78
f 85//78 2//97 86//77
f 86//77 2//97 87//76
f 87//76 2//97 88//75
f 88//75 2//97 89//74
f 89//74 2//97 90//73
f 90//73 2//97 91//72
f 91//72 2//97 92//71
f 92//71 2//97 93//70
f 93//70 2//97 94//69
f 94//69 2//97 95//68
f 95//68 2//97 96//65
f 97//66 2//97 66//67
f 96//65 2//97 97//66
