# Blender v2.78 (sub 0) OBJ File: ''
# www.blender.org
o Cube_Cube.001
v -0.040000 0.000000 0.040000
v -0.040000 2.816627 0.040000
v -0.040000 0.000000 -0.040000
v -0.040000 2.816627 -0.040000
v 0.040000 0.000000 0.040000
v 0.040000 2.816627 0.040000
v 0.040000 0.000000 -0.040000
v 0.040000 2.816627 -0.040000
v -0.037588 -0.013681 0.040000
v -1.000931 2.633082 0.040000
v -0.037588 -0.013681 -0.040000
v -1.000931 2.633082 -0.040000
v 0.037588 0.013681 0.040000
v -0.925755 2.660444 0.040000
v 0.037588 0.013681 -0.040000
v -0.925755 2.660444 -0.040000
v -0.037588 0.013681 0.040000
v 0.925755 2.660444 0.040000
v -0.037588 0.013681 -0.040000
v 0.925755 2.660444 -0.040000
v 0.037588 -0.013681 0.040000
v 1.000931 2.633082 0.040000
v 0.037588 -0.013681 -0.040000
v 1.000931 2.633082 -0.040000
v -0.039392 0.006946 0.040000
v 0.449710 2.780782 0.040000
v -0.039392 0.006946 -0.040000
v 0.449710 2.780782 -0.040000
v 0.039392 -0.006946 0.040000
v 0.528494 2.766890 0.040000
v 0.039392 -0.006946 -0.040000
v 0.528494 2.766890 -0.040000
v -0.039392 -0.006946 0.040000
v -0.528494 2.766890 0.040000
v -0.039392 -0.006946 -0.040000
v -0.528494 2.766890 -0.040000
v 0.039392 0.006946 0.040000
v -0.449710 2.780782 0.040000
v 0.039392 0.006946 -0.040000
v -0.449710 2.780782 -0.040000
v -0.039848 -0.003486 0.040000
v -0.285333 2.802423 0.040000
v -0.039848 -0.003486 -0.040000
v -0.285333 2.802423 -0.040000
v 0.039848 0.003486 0.040000
v -0.205637 2.809395 0.040000
v 0.039848 0.003486 -0.040000
v -0.205637 2.809395 -0.040000
v -0.039848 0.003486 0.040000
v 0.205637 2.809395 0.040000
v -0.039848 0.003486 -0.040000
v 0.205637 2.809395 -0.040000
v 0.039848 -0.003486 0.040000
v 0.285333 2.802423 0.040000
v 0.039848 -0.003486 -0.040000
v 0.285333 2.802423 -0.040000
v -0.038637 0.010353 0.040000
v 0.690360 2.731005 0.040000
v -0.038637 0.010353 -0.040000
v 0.690360 2.731005 -0.040000
v 0.038637 -0.010353 0.040000
v 0.767634 2.710300 0.040000
v 0.038637 -0.010353 -0.040000
v 0.767634 2.710300 -0.040000
v -0.038637 -0.010353 0.040000
v -0.767634 2.710299 0.040000
v -0.038637 -0.010353 -0.040000
v -0.767634 2.710299 -0.040000
v 0.038637 0.010353 0.040000
v -0.690360 2.731006 0.040000
v 0.038637 0.010353 -0.040000
v -0.690360 2.731006 -0.040000
v -0.028284 0.028284 0.040000
v 1.963372 2.019940 0.040000
v -0.028284 0.028284 -0.040000
v 1.963372 2.019940 -0.040000
v 0.028284 -0.028284 0.040000
v 2.019940 1.963372 0.040000
v 0.028284 -0.028284 -0.040000
v 2.019940 1.963372 -0.040000
v -0.036252 0.016905 0.040000
v 1.154106 2.569635 0.040000
v -0.036252 0.016905 -0.040000
v 1.154106 2.569635 -0.040000
v 0.036252 -0.016905 0.040000
v 1.226610 2.535826 0.040000
v 0.036252 -0.016905 -0.040000
v 1.226610 2.535826 -0.040000
v -0.016905 0.036252 0.040000
v 2.535826 1.226610 0.040000
v -0.016905 0.036252 -0.040000
v 2.535826 1.226610 -0.040000
v 0.016905 -0.036252 0.040000
v 2.569635 1.154106 0.040000
v 0.016905 -0.036252 -0.040000
v 2.569635 1.154106 -0.040000
v -0.022943 0.032766 0.040000
v 2.284303 1.648317 0.040000
v -0.022943 0.032766 -0.040000
v 2.284303 1.648317 -0.040000
v 0.022943 -0.032766 0.040000
v 2.330189 1.582785 0.040000
v 0.022943 -0.032766 -0.040000
v 2.330189 1.582785 -0.040000
v -0.032766 0.022943 0.040000
v 1.582784 2.330189 0.040000
v -0.032766 0.022943 -0.040000
v 1.582784 2.330189 -0.040000
v 0.032766 -0.022943 0.040000
v 1.648317 2.284303 0.040000
v 0.032766 -0.022943 -0.040000
v 1.648317 2.284303 -0.040000
v -0.030642 0.025712 0.040000
v 1.779851 2.183372 0.040000
v -0.030642 0.025712 -0.040000
v 1.779851 2.183372 -0.040000
v 0.030642 -0.025712 0.040000
v 1.841135 2.131950 0.040000
v 0.030642 -0.025712 -0.040000
v 1.841135 2.131950 -0.040000
v -0.025712 0.030642 0.040000
v 2.131949 1.841135 0.040000
v -0.025712 0.030642 -0.040000
v 2.131949 1.841135 -0.040000
v 0.025712 -0.030642 0.040000
v 2.183373 1.779851 0.040000
v 0.025712 -0.030642 -0.040000
v 2.183373 1.779851 -0.040000
v -0.020000 0.034641 0.040000
v 2.419270 1.442955 0.040000
v -0.020000 0.034641 -0.040000
v 2.419270 1.442955 -0.040000
v 0.020000 -0.034641 0.040000
v 2.459270 1.373673 0.040000
v 0.020000 -0.034641 -0.040000
v 2.459270 1.373673 -0.040000
v -0.034641 0.020000 0.040000
v 1.373672 2.459270 0.040000
v -0.034641 0.020000 -0.040000
v 1.373672 2.459270 -0.040000
v 0.034641 -0.020000 0.040000
v 1.442955 2.419271 0.040000
v 0.034641 -0.020000 -0.040000
v 1.442955 2.419271 -0.040000
v -0.028284 -0.028284 0.040000
v -2.019939 1.963372 0.040000
v -0.028284 -0.028284 -0.040000
v -2.019939 1.963372 -0.040000
v 0.028284 0.028284 0.040000
v -1.963371 2.019940 0.040000
v 0.028284 0.028284 -0.040000
v -1.963371 2.019940 -0.040000
v -0.016905 -0.036252 0.040000
v -2.569635 1.154106 0.040000
v -0.016905 -0.036252 -0.040000
v -2.569635 1.154106 -0.040000
v 0.016905 0.036252 0.040000
v -2.535826 1.226610 0.040000
v 0.016905 0.036252 -0.040000
v -2.535826 1.226610 -0.040000
v -0.036252 -0.016905 0.040000
v -1.226610 2.535826 0.040000
v -0.036252 -0.016905 -0.040000
v -1.226610 2.535826 -0.040000
v 0.036252 0.016905 0.040000
v -1.154106 2.569635 0.040000
v 0.036252 0.016905 -0.040000
v -1.154106 2.569635 -0.040000
v -0.032766 -0.022943 0.040000
v -1.648316 2.284303 0.040000
v -0.032766 -0.022943 -0.040000
v -1.648316 2.284303 -0.040000
v 0.032766 0.022943 0.040000
v -1.582785 2.330189 0.040000
v 0.032766 0.022943 -0.040000
v -1.582785 2.330189 -0.040000
v -0.022943 -0.032766 0.040000
v -2.330189 1.582785 0.040000
v -0.022943 -0.032766 -0.040000
v -2.330189 1.582785 -0.040000
v 0.022943 0.032766 0.040000
v -2.284303 1.648317 0.040000
v 0.022943 0.032766 -0.040000
v -2.284303 1.648317 -0.040000
v -0.025712 -0.030642 0.040000
v -2.183372 1.779851 0.040000
v -0.025712 -0.030642 -0.040000
v -2.183372 1.779851 -0.040000
v 0.025712 0.030642 0.040000
v -2.131950 1.841135 0.040000
v 0.025712 0.030642 -0.040000
v -2.131950 1.841135 -0.040000
v -0.030642 -0.025712 0.040000
v -1.841135 2.131949 0.040000
v -0.030642 -0.025712 -0.040000
v -1.841135 2.131949 -0.040000
v 0.030642 0.025712 0.040000
v -1.779851 2.183373 0.040000
v 0.030642 0.025712 -0.040000
v -1.779851 2.183373 -0.040000
v -0.034641 -0.020000 0.040000
v -1.442954 2.419271 0.040000
v -0.034641 -0.020000 -0.040000
v -1.442954 2.419271 -0.040000
v 0.034641 0.020000 0.040000
v -1.373673 2.459271 0.040000
v 0.034641 0.020000 -0.040000
v -1.373673 2.459271 -0.040000
v -0.020000 -0.034641 0.040000
v -2.459270 1.373672 0.040000
v -0.020000 -0.034641 -0.040000
v -2.459270 1.373672 -0.040000
v 0.020000 0.034641 0.040000
v -2.419271 1.442955 0.040000
v 0.020000 0.034641 -0.040000
v -2.419271 1.442955 -0.040000
vn -1.0000 0.0000 0.0000
vn 0.0000 0.0000 -1.0000
vn 1.0000 0.0000 0.0000
vn 0.0000 0.0000 1.0000
vn 0.0000 -1.0000 0.0000
vn 0.0000 1.0000 0.0000
vn -0.9397 -0.3420 0.0000
vn 0.9397 0.3420 0.0000
vn 0.3420 -0.9397 0.0000
vn -0.3420 0.9397 0.0000
vn -0.9397 0.3420 0.0000
vn 0.9397 -0.3420 0.0000
vn -0.3420 -0.9397 0.0000
vn 0.3420 0.9397 0.0000
vn -0.9848 0.1736 0.0000
vn 0.9848 -0.1736 0.0000
vn -0.1736 -0.9848 0.0000
vn 0.1737 0.9848 0.0000
vn -0.9848 -0.1736 0.0000
vn 0.9848 0.1736 0.0000
vn 0.1736 -0.9848 0.0000
vn -0.1737 0.9848 0.0000
vn -0.9962 -0.0872 -0.0000
vn 0.9962 0.0872 0.0000
vn 0.0872 -0.9962 0.0000
vn -0.0872 0.9962 0.0000
vn -0.9962 0.0872 -0.0000
vn 0.9962 -0.0872 0.0000
vn -0.0872 -0.9962 0.0000
vn 0.0872 0.9962 0.0000
vn -0.9659 0.2588 0.0000
vn 0.9659 -0.2588 0.0000
vn -0.2588 -0.9659 0.0000
vn 0.2588 0.9659 0.0000
vn -0.9659 -0.2588 0.0000
vn 0.9659 0.2588 0.0000
vn 0.2588 -0.9659 0.0000
vn -0.2588 0.9659 0.0000
vn -0.7071 0.7071 0.0000
vn 0.7071 -0.7071 0.0000
vn -0.7071 -0.7071 0.0000
vn 0.7071 0.7071 0.0000
vn -0.9063 0.4226 0.0000
vn 0.9063 -0.4226 0.0000
vn -0.4226 -0.9063 0.0000
vn 0.4226 0.9063 0.0000
vn -0.4226 0.9063 0.0000
vn 0.4226 -0.9063 0.0000
vn -0.9063 -0.4226 0.0000
vn 0.9063 0.4226 0.0000
vn -0.5736 0.8192 0.0000
vn 0.5736 -0.8192 0.0000
vn -0.8192 -0.5736 0.0000
vn 0.8192 0.5736 0.0000
vn -0.8192 0.5736 0.0000
vn 0.8192 -0.5736 0.0000
vn -0.5736 -0.8192 -0.0000
vn 0.5736 0.8192 0.0000
vn -0.7660 0.6428 0.0000
vn 0.7660 -0.6428 0.0000
vn -0.6428 -0.7660 0.0000
vn 0.6428 0.7660 0.0000
vn -0.6428 0.7660 0.0000
vn 0.6428 -0.7660 0.0000
vn -0.7660 -0.6428 0.0000
vn 0.7660 0.6428 0.0000
vn -0.5000 0.8660 0.0000
vn 0.5000 -0.8660 0.0000
vn -0.8660 -0.5000 0.0000
vn 0.8660 0.5000 0.0000
vn -0.8660 0.5000 0.0000
vn 0.8660 -0.5000 0.0000
vn -0.5000 -0.8660 0.0000
vn 0.5000 0.8660 0.0000
vn -0.7661 0.6428 0.0000
s off
f 1//1 2//1 4//1 3//1
f 3//2 4//2 8//2 7//2
f 7//3 8//3 6//3 5//3
f 5//4 6//4 2//4 1//4
f 3//5 7//5 5//5 1//5
f 8//6 4//6 2//6 6//6
f 9//7 10//7 12//7 11//7
f 11//2 12//2 16//2 15//2
f 15//8 16//8 14//8 13//8
f 13//4 14//4 10//4 9//4
f 11//9 15//9 13//9 9//9
f 16//10 12//10 10//10 14//10
f 17//11 18//11 20//11 19//11
f 19//2 20//2 24//2 23//2
f 23//12 24//12 22//12 21//12
f 21//4 22//4 18//4 17//4
f 19//13 23//13 21//13 17//13
f 24//14 20//14 18//14 22//14
f 25//15 26//15 28//15 27//15
f 27//2 28//2 32//2 31//2
f 31//16 32//16 30//16 29//16
f 29//4 30//4 26//4 25//4
f 27//17 31//17 29//17 25//17
f 32//18 28//18 26//18 30//18
f 33//19 34//19 36//19 35//19
f 35//2 36//2 40//2 39//2
f 39//20 40//20 38//20 37//20
f 37//4 38//4 34//4 33//4
f 35//21 39//21 37//21 33//21
f 40//22 36//22 34//22 38//22
f 41//23 42//23 44//23 43//23
f 43//2 44//2 48//2 47//2
f 47//24 48//24 46//24 45//24
f 45//4 46//4 42//4 41//4
f 43//25 47//25 45//25 41//25
f 48//26 44//26 42//26 46//26
f 49//27 50//27 52//27 51//27
f 51//2 52//2 56//2 55//2
f 55//28 56//28 54//28 53//28
f 53//4 54//4 50//4 49//4
f 51//29 55//29 53//29 49//29
f 56//30 52//30 50//30 54//30
f 57//31 58//31 60//31 59//31
f 59//2 60//2 64//2 63//2
f 63//32 64//32 62//32 61//32
f 61//4 62//4 58//4 57//4
f 59//33 63//33 61//33 57//33
f 64//34 60//34 58//34 62//34
f 65//35 66//35 68//35 67//35
f 67//2 68//2 72//2 71//2
f 71//36 72//36 70//36 69//36
f 69//4 70//4 66//4 65//4
f 67//37 71//37 69//37 65//37
f 72//38 68//38 66//38 70//38
f 73//39 74//39 76//39 75//39
f 75//2 76//2 80//2 79//2
f 79//40 80//40 78//40 77//40
f 77//4 78//4 74//4 73//4
f 75//41 79//41 77//41 73//41
f 80//42 76//42 74//42 78//42
f 81//43 82//43 84//43 83//43
f 83//2 84//2 88//2 87//2
f 87//44 88//44 86//44 85//44
f 85//4 86//4 82//4 81//4
f 83//45 87//45 85//45 81//45
f 88//46 84//46 82//46 86//46
f 89//47 90//47 92//47 91//47
f 91//2 92//2 96//2 95//2
f 95//48 96//48 94//48 93//48
f 93//4 94//4 90//4 89//4
f 91//49 95//49 93//49 89//49
f 96//50 92//50 90//50 94//50
f 97//51 98//51 100//51 99//51
f 99//2 100//2 104//2 103//2
f 103//52 104//52 102//52 101//52
f 101//4 102//4 98//4 97//4
f 99//53 103//53 101//53 97//53
f 104//54 100//54 98//54 102//54
f 105//55 106//55 108//55 107//55
f 107//2 108//2 112//2 111//2
f 111//56 112//56 110//56 109//56
f 109//4 110//4 106//4 105//4
f 107//57 111//57 109//57 105//57
f 112//58 108//58 106//58 110//58
f 113//59 114//59 116//59 115//59
f 115//2 116//2 120//2 119//2
f 119//60 120//60 118//60 117//60
f 117//4 118//4 114//4 113//4
f 115//61 119//61 117//61 113//61
f 120//62 116//62 114//62 118//62
f 121//63 122//63 124//63 123//63
f 123//2 124//2 128//2 127//2
f 127//64 128//64 126//64 125//64
f 125//4 126//4 122//4 121//4
f 123//65 127//65 125//65 121//65
f 128//66 124//66 122//66 126//66
f 129//67 130//67 132//67 131//67
f 131//2 132//2 136//2 135//2
f 135//68 136//68 134//68 133//68
f 133//4 134//4 130//4 129//4
f 131//69 135//69 133//69 129//69
f 136//70 132//70 130//70 134//70
f 137//71 138//71 140//71 139//71
f 139//2 140//2 144//2 143//2
f 143//72 144//72 142//72 141//72
f 141//4 142//4 138//4 137//4
f 139//73 143//73 141//73 137//73
f 144//74 140//74 138//74 142//74
f 145//41 146//41 148//41 147//41
f 147//2 148//2 152//2 151//2
f 151//42 152//42 150//42 149//42
f 149//4 150//4 146//4 145//4
f 147//40 151//40 149//40 145//40
f 152//39 148//39 146//39 150//39
f 153//45 154//45 156//45 155//45
f 155//2 156//2 160//2 159//2
f 159//46 160//46 158//46 157//46
f 157//4 158//4 154//4 153//4
f 155//44 159//44 157//44 153//44
f 160//43 156//43 154//43 158//43
f 161//49 162//49 164//49 163//49
f 163//2 164//2 168//2 167//2
f 167//50 168//50 166//50 165//50
f 165//4 166//4 162//4 161//4
f 163//48 167//48 165//48 161//48
f 168//47 164//47 162//47 166//47
f 169//53 170//53 172//53 171//53
f 171//2 172//2 176//2 175//2
f 175//54 176//54 174//54 173//54
f 173//4 174//4 170//4 169//4
f 171//52 175//52 173//52 169//52
f 176//51 172//51 170//51 174//51
f 177//57 178//57 180//57 179//57
f 179//2 180//2 184//2 183//2
f 183//58 184//58 182//58 181//58
f 181//4 182//4 178//4 177//4
f 179//56 183//56 181//56 177//56
f 184//55 180//55 178//55 182//55
f 185//61 186//61 188//61 187//61
f 187//2 188//2 192//2 191//2
f 191//62 192//62 190//62 189//62
f 189//4 190//4 186//4 185//4
f 187//60 191//60 189//60 185//60
f 192//75 188//75 186//75 190//75
f 193//65 194//65 196//65 195//65
f 195//2 196//2 200//2 199//2
f 199//66 200//66 198//66 197//66
f 197//4 198//4 194//4 193//4
f 195//64 199//64 197//64 193//64
f 200//63 196//63 194//63 198//63
f 201//69 202//69 204//69 203//69
f 203//2 204//2 208//2 207//2
f 207//70 208//70 206//70 205//70
f 205//4 206//4 202//4 201//4
f 203//68 207//68 205//68 201//68
f 208//67 204//67 202//67 206//67
f 209//73 210//73 212//73 211//73
f 211//2 212//2 216//2 215//2
f 215//74 216//74 214//74 213//74
f 213//4 214//4 210//4 209//4
f 211//72 215//72 213//72 209//72
f 216//71 212//71 210//71 214//71
